<svg id="visual" viewBox="0 0 960 540" width="960" height="540" xmlns="http://www.w3.org/2000/svg" xmlns:xlink="http://www.w3.org/1999/xlink" version="1.1"><rect x="0" y="0" width="960" height="540" fill="#ffffff"></rect><path d="M0 373L32 366.2C64 359.3 128 345.7 192 343.8C256 342 320 352 384 361.3C448 370.7 512 379.3 576 384C640 388.7 704 389.3 768 383.7C832 378 896 366 928 360L960 354L960 541L928 541C896 541 832 541 768 541C704 541 640 541 576 541C512 541 448 541 384 541C320 541 256 541 192 541C128 541 64 541 32 541L0 541Z" fill="#4facf7"></path><path d="M0 373L32 382C64 391 128 409 192 407.5C256 406 320 385 384 384.2C448 383.3 512 402.7 576 405.2C640 407.7 704 393.3 768 395.2C832 397 896 415 928 424L960 433L960 541L928 541C896 541 832 541 768 541C704 541 640 541 576 541C512 541 448 541 384 541C320 541 256 541 192 541C128 541 64 541 32 541L0 541Z" fill="#3b97fd"></path><path d="M0 414L32 421C64 428 128 442 192 445.8C256 449.7 320 443.3 384 437.3C448 431.3 512 425.7 576 431.8C640 438 704 456 768 464.7C832 473.3 896 472.7 928 472.3L960 472L960 541L928 541C896 541 832 541 768 541C704 541 640 541 576 541C512 541 448 541 384 541C320 541 256 541 192 541C128 541 64 541 32 541L0 541Z" fill="#4d7efd"></path><path d="M0 508L32 503.2C64 498.3 128 488.7 192 487.5C256 486.3 320 493.7 384 499.2C448 504.7 512 508.3 576 503C640 497.7 704 483.3 768 480.3C832 477.3 896 485.7 928 489.8L960 494L960 541L928 541C896 541 832 541 768 541C704 541 640 541 576 541C512 541 448 541 384 541C320 541 256 541 192 541C128 541 64 541 32 541L0 541Z" fill="#715df2"></path></svg>