<svg id="visual" viewBox="0 0 675 900" width="675" height="900" xmlns="http://www.w3.org/2000/svg" xmlns:xlink="http://www.w3.org/1999/xlink" version="1.1"><rect x="0" y="0" width="675" height="900" fill="#ffffff"></rect><path d="M0 622L22.5 610.7C45 599.3 90 576.7 135 573.5C180 570.3 225 586.7 270 602.2C315 617.7 360 632.3 405 640.3C450 648.3 495 649.7 540 640.2C585 630.7 630 610.3 652.5 600.2L675 590L675 901L652.5 901C630 901 585 901 540 901C495 901 450 901 405 901C360 901 315 901 270 901C225 901 180 901 135 901C90 901 45 901 22.5 901L0 901Z" fill="#4facf7"></path><path d="M0 622L22.5 637C45 652 90 682 135 679.5C180 677 225 642 270 640.7C315 639.3 360 671.7 405 675.8C450 680 495 656 540 659.2C585 662.3 630 692.7 652.5 707.8L675 723L675 901L652.5 901C630 901 585 901 540 901C495 901 450 901 405 901C360 901 315 901 270 901C225 901 180 901 135 901C90 901 45 901 22.5 901L0 901Z" fill="#3b97fd"></path><path d="M0 690L22.5 701.8C45 713.7 90 737.3 135 743.8C180 750.3 225 739.7 270 729.7C315 719.7 360 710.3 405 720.5C450 730.7 495 760.3 540 774.7C585 789 630 788 652.5 787.5L675 787L675 901L652.5 901C630 901 585 901 540 901C495 901 450 901 405 901C360 901 315 901 270 901C225 901 180 901 135 901C90 901 45 901 22.5 901L0 901Z" fill="#4d7efd"></path><path d="M0 848L22.5 839.8C45 831.7 90 815.3 135 813.3C180 811.3 225 823.7 270 832.8C315 842 360 848 405 839.2C450 830.3 495 806.7 540 801.7C585 796.7 630 810.3 652.5 817.2L675 824L675 901L652.5 901C630 901 585 901 540 901C495 901 450 901 405 901C360 901 315 901 270 901C225 901 180 901 135 901C90 901 45 901 22.5 901L0 901Z" fill="#715df2"></path></svg>