<svg width="34" height="33" viewBox="0 0 34 33" fill="none" xmlns="http://www.w3.org/2000/svg">
<path d="M32.3489 25.8893C29.099 25.8893 26.0991 22.6344 24.5492 20.6314C22.9992 22.6344 19.9993 25.8893 16.7494 25.8893C13.4995 25.8893 10.4996 22.6344 8.9497 20.6314C7.49975 22.6344 4.49985 25.8893 1.24996 25.8893C0.549982 25.8893 0 25.3385 0 24.6374C0 23.9363 0.549982 23.3855 1.24996 23.3855C3.84987 23.3855 7.04976 19.2292 7.94973 17.7771C8.19973 17.4265 8.59971 17.1761 8.9997 17.1761C9.39969 17.1761 9.84967 17.3764 10.0497 17.7771C10.9496 19.2292 14.1495 23.3855 16.7494 23.3855C19.3494 23.3855 22.5492 19.2292 23.4492 17.7771C23.6992 17.4265 24.0992 17.1761 24.4992 17.1761C24.9492 17.1761 25.3492 17.3764 25.5491 17.7771C26.4491 19.2292 29.649 23.3855 32.2489 23.3855C32.9489 23.3855 33.4989 23.9363 33.4989 24.6374C33.4989 25.3385 33.0489 25.8893 32.3489 25.8893Z" fill="white"/>
<path d="M32.3489 33C29.099 33 26.0991 29.7451 24.5492 27.7421C22.9992 29.7451 19.9993 33 16.7494 33C13.4995 33 10.4996 29.7451 8.9497 27.7421C7.49975 29.7451 4.49985 33 1.24996 33C0.549982 33 0 32.4492 0 31.7481C0 31.0471 0.549982 30.4962 1.24996 30.4962C3.84987 30.4962 7.04976 26.34 7.94973 24.8878C8.19973 24.5372 8.59971 24.2869 8.9997 24.2869C9.39969 24.2869 9.84967 24.4872 10.0497 24.8878C10.9496 26.34 14.1495 30.4962 16.7494 30.4962C19.3494 30.4962 22.5492 26.34 23.4492 24.8878C23.6992 24.5372 24.0992 24.2869 24.4992 24.2869C24.9492 24.2869 25.3492 24.4872 25.5491 24.8878C26.4491 26.34 29.649 30.4962 32.2489 30.4962C32.9489 30.4962 33.4989 31.0471 33.4989 31.7481C33.4989 32.4492 33.0489 33 32.3489 33Z" fill="white"/>
<path d="M2.10005 20.1807C1.50007 20.1807 1.00008 19.7801 0.850089 19.1792C0.700094 18.1777 0.600098 17.1762 0.600098 16.2247C0.600098 7.2612 7.84985 0.000255712 16.7996 0.000255712C25.7493 -0.0498198 32.999 7.2612 32.999 16.2247C32.999 17.2262 32.899 18.1777 32.749 19.1291C32.649 19.8302 31.999 20.2808 31.2991 20.1306C30.5991 20.0305 30.1491 19.3795 30.2991 18.6784C30.4491 17.8772 30.4991 17.0259 30.4991 16.2247C30.4991 8.66332 24.3493 2.50403 16.7996 2.50403C9.24981 2.50403 3.10001 8.61324 3.10001 16.2247C3.10001 17.076 3.20001 17.9273 3.35001 18.7285C3.45 19.4296 3.05002 20.0805 2.35004 20.1807C2.25004 20.1807 2.15005 20.1807 2.10005 20.1807Z" fill="white"/>
</svg>
